<svg xmlns="http://www.w3.org/2000/svg" viewBox="0 0 100 100" width="100%" height="100%">
  <!-- Beautiful organic paw print in PawPal premium brand blue (#155dfc) -->
  <path fill="#155dfc" d="M 28 38 C 22.5 38 18 43.4 18 50 C 18 56.6 22.5 62 28 62 C 33.5 62 38 56.6 38 50 C 38 43.4 33.5 38 28 38 Z" transform="rotate(-18 28 50)" />
  <path fill="#155dfc" d="M 43 25 C 37 25 32 30.8 32 38 C 32 45.2 37 51 43 51 C 49 51 54 45.2 54 38 C 54 30.8 49 25 43 25 Z" transform="rotate(-6 43 38)" />
  <path fill="#155dfc" d="M 57 25 C 51 25 46 30.8 46 38 C 46 45.2 51 51 57 51 C 63 51 68 45.2 68 38 C 68 30.8 63 25 57 25 Z" transform="rotate(6 57 38)" />
  <path fill="#155dfc" d="M 72 38 C 66.5 38 62 43.4 62 50 C 62 56.6 66.5 62 72 62 C 77.5 62 82 56.6 82 50 C 82 43.4 77.5 38 72 38 Z" transform="rotate(18 72 50)" />
  <!-- Main central heel pad: a curved heart-like / kidney-like shape -->
  <path fill="#155dfc" d="M 50 49 C 41 49 31 52.5 28 60 C 25 67.5 29 77.5 38 81.5 C 44 84.1 47.5 82.5 50 80.5 C 52.5 82.5 56 84.1 62 81.5 C 71 77.5 75 67.5 72 60 C 69 52.5 59 49 50 49 Z" />
</svg>